<?xml version="1.0" encoding="UTF-8" standalone="no"?>
<!DOCTYPE svg PUBLIC "-//W3C//DTD SVG 1.1//EN"
 "http://www.w3.org/Graphics/SVG/1.1/DTD/svg11.dtd">
<!-- Generated by graphviz version 2.38.0 (20140413.2041)
 -->
<!-- Title: build_Dependence Pages: 1 -->
<svg width="414pt" height="2204pt"
 viewBox="0.00 0.00 414.47 2204.00" xmlns="http://www.w3.org/2000/svg" xmlns:xlink="http://www.w3.org/1999/xlink">
<g id="graph0" class="graph" transform="scale(1 1) rotate(0) translate(4 2200)">
<title>build_Dependence</title>
<polygon fill="white" stroke="none" points="-4,4 -4,-2200 410.467,-2200 410.467,4 -4,4"/>
<!-- tja1021_mk -->
<g id="node1" class="node"><title>tja1021_mk</title>
<ellipse fill="none" stroke="black" cx="73.4435" cy="-45" rx="50.0912" ry="18"/>
<text text-anchor="middle" x="73.4435" y="-41.3" font-family="Times New Roman,serif" font-size="14.00">tja1021.mk</text>
</g>
<!-- tja1021_mcal_c -->
<g id="node2" class="node"><title>tja1021_mcal_c</title>
<ellipse fill="cornsilk" stroke="black" cx="294.677" cy="-72" rx="65.7887" ry="18"/>
<text text-anchor="middle" x="294.677" y="-68.3" font-family="Times New Roman,serif" font-size="14.00">tja1021_mcal.c</text>
</g>
<!-- tja1021_mk&#45;&gt;tja1021_mcal_c -->
<g id="edge1" class="edge"><title>tja1021_mk&#45;&gt;tja1021_mcal_c</title>
<path fill="none" stroke="blue" d="M120.937,-50.726C150.895,-54.4155 190.395,-59.2801 224.06,-63.4263"/>
<polygon fill="blue" stroke="blue" points="223.951,-66.9392 234.304,-64.6878 224.807,-59.9917 223.951,-66.9392"/>
</g>
<!-- tja1021_c -->
<g id="node3" class="node"><title>tja1021_c</title>
<ellipse fill="cornsilk" stroke="black" cx="294.677" cy="-18" rx="43.5923" ry="18"/>
<text text-anchor="middle" x="294.677" y="-14.3" font-family="Times New Roman,serif" font-size="14.00">tja1021.c</text>
</g>
<!-- tja1021_mk&#45;&gt;tja1021_c -->
<g id="edge2" class="edge"><title>tja1021_mk&#45;&gt;tja1021_c</title>
<path fill="none" stroke="blue" d="M120.937,-39.274C156.668,-34.8735 205.972,-28.8014 242.763,-24.2704"/>
<polygon fill="blue" stroke="blue" points="243.289,-27.7321 252.786,-23.0359 242.433,-20.7846 243.289,-27.7321"/>
</g>
<!-- lin_mk -->
<g id="node4" class="node"><title>lin_mk</title>
<ellipse fill="none" stroke="black" cx="73.4435" cy="-234" rx="32.4942" ry="18"/>
<text text-anchor="middle" x="73.4435" y="-230.3" font-family="Times New Roman,serif" font-size="14.00">lin.mk</text>
</g>
<!-- lin_net_c -->
<g id="node5" class="node"><title>lin_net_c</title>
<ellipse fill="cornsilk" stroke="black" cx="294.677" cy="-288" rx="41.6928" ry="18"/>
<text text-anchor="middle" x="294.677" y="-284.3" font-family="Times New Roman,serif" font-size="14.00">lin_net.c</text>
</g>
<!-- lin_mk&#45;&gt;lin_net_c -->
<g id="edge3" class="edge"><title>lin_mk&#45;&gt;lin_net_c</title>
<path fill="none" stroke="navy" d="M103.431,-241.259C125.267,-246.717 155.948,-254.364 182.887,-261 204.265,-266.266 227.977,-272.052 247.961,-276.913"/>
<polygon fill="navy" stroke="navy" points="247.197,-280.329 257.741,-279.29 248.851,-273.527 247.197,-280.329"/>
</g>
<!-- lin_phy_commands_c -->
<g id="node6" class="node"><title>lin_phy_commands_c</title>
<ellipse fill="cornsilk" stroke="black" cx="294.677" cy="-234" rx="89.0842" ry="18"/>
<text text-anchor="middle" x="294.677" y="-230.3" font-family="Times New Roman,serif" font-size="14.00">lin_phy_commands.c</text>
</g>
<!-- lin_mk&#45;&gt;lin_phy_commands_c -->
<g id="edge4" class="edge"><title>lin_mk&#45;&gt;lin_phy_commands_c</title>
<path fill="none" stroke="navy" d="M104.927,-229.155C129.985,-227.632 166.856,-227.022 201.376,-227.325"/>
<polygon fill="navy" stroke="navy" points="201.477,-230.827 211.516,-227.442 201.557,-223.827 201.477,-230.827"/>
</g>
<!-- lin_mk&#45;&gt;lin_phy_commands_c -->
<g id="edge7" class="edge"><title>lin_mk&#45;&gt;lin_phy_commands_c</title>
<path fill="none" stroke="navy" d="M104.927,-238.845C129.985,-240.368 166.856,-240.978 201.376,-240.675"/>
<polygon fill="navy" stroke="navy" points="201.557,-244.173 211.516,-240.558 201.477,-237.173 201.557,-244.173"/>
</g>
<!-- lin_commands_c -->
<g id="node7" class="node"><title>lin_commands_c</title>
<ellipse fill="cornsilk" stroke="black" cx="294.677" cy="-180" rx="70.6878" ry="18"/>
<text text-anchor="middle" x="294.677" y="-176.3" font-family="Times New Roman,serif" font-size="14.00">lin_commands.c</text>
</g>
<!-- lin_mk&#45;&gt;lin_commands_c -->
<g id="edge5" class="edge"><title>lin_mk&#45;&gt;lin_commands_c</title>
<path fill="none" stroke="navy" d="M103.431,-226.741C125.267,-221.283 155.948,-213.636 182.887,-207 199.124,-203 216.708,-198.7 232.982,-194.734"/>
<polygon fill="navy" stroke="navy" points="234.034,-198.08 242.922,-192.313 232.378,-191.279 234.034,-198.08"/>
</g>
<!-- lin_diag_page_c -->
<g id="node8" class="node"><title>lin_diag_page_c</title>
<ellipse fill="cornsilk" stroke="black" cx="294.677" cy="-126" rx="67.6881" ry="18"/>
<text text-anchor="middle" x="294.677" y="-122.3" font-family="Times New Roman,serif" font-size="14.00">lin_diag_page.c</text>
</g>
<!-- lin_mk&#45;&gt;lin_diag_page_c -->
<g id="edge6" class="edge"><title>lin_mk&#45;&gt;lin_diag_page_c</title>
<path fill="none" stroke="navy" d="M90.7006,-218.483C110.785,-200.159 146.748,-170.026 182.887,-153 196.492,-146.59 211.779,-141.607 226.552,-137.768"/>
<polygon fill="navy" stroke="navy" points="227.789,-141.068 236.67,-135.29 226.124,-134.269 227.789,-141.068"/>
</g>
<!-- spc58_lin_lld_mk -->
<g id="node9" class="node"><title>spc58_lin_lld_mk</title>
<ellipse fill="none" stroke="black" cx="73.4435" cy="-369" rx="73.387" ry="18"/>
<text text-anchor="middle" x="73.4435" y="-365.3" font-family="Times New Roman,serif" font-size="14.00">spc58_lin_lld.mk</text>
</g>
<!-- spc58_lin_lld_mcal_c -->
<g id="node10" class="node"><title>spc58_lin_lld_mcal_c</title>
<ellipse fill="cornsilk" stroke="black" cx="294.677" cy="-396" rx="88.2844" ry="18"/>
<text text-anchor="middle" x="294.677" y="-392.3" font-family="Times New Roman,serif" font-size="14.00">spc58_lin_lld_mcal.c</text>
</g>
<!-- spc58_lin_lld_mk&#45;&gt;spc58_lin_lld_mcal_c -->
<g id="edge8" class="edge"><title>spc58_lin_lld_mk&#45;&gt;spc58_lin_lld_mcal_c</title>
<path fill="none" stroke="navy" d="M139.331,-376.991C160.998,-379.66 185.48,-382.675 208.456,-385.504"/>
<polygon fill="navy" stroke="navy" points="208.19,-388.998 218.543,-386.747 209.045,-382.051 208.19,-388.998"/>
</g>
<!-- spc58_lin_lld_c -->
<g id="node11" class="node"><title>spc58_lin_lld_c</title>
<ellipse fill="cornsilk" stroke="black" cx="294.677" cy="-342" rx="66.0889" ry="18"/>
<text text-anchor="middle" x="294.677" y="-338.3" font-family="Times New Roman,serif" font-size="14.00">spc58_lin_lld.c</text>
</g>
<!-- spc58_lin_lld_mk&#45;&gt;spc58_lin_lld_c -->
<g id="edge9" class="edge"><title>spc58_lin_lld_mk&#45;&gt;spc58_lin_lld_c</title>
<path fill="none" stroke="navy" d="M139.331,-361.009C165.865,-357.741 196.621,-353.953 223.661,-350.623"/>
<polygon fill="navy" stroke="navy" points="224.329,-354.067 233.827,-349.371 223.474,-347.12 224.329,-354.067"/>
</g>
<!-- ad5641_mk -->
<g id="node12" class="node"><title>ad5641_mk</title>
<ellipse fill="none" stroke="black" cx="73.4435" cy="-531" rx="50.8918" ry="18"/>
<text text-anchor="middle" x="73.4435" y="-527.3" font-family="Times New Roman,serif" font-size="14.00">ad5641.mk</text>
</g>
<!-- ad5641_dac_driver_c -->
<g id="node13" class="node"><title>ad5641_dac_driver_c</title>
<ellipse fill="cornsilk" stroke="black" cx="294.677" cy="-612" rx="87.9851" ry="18"/>
<text text-anchor="middle" x="294.677" y="-608.3" font-family="Times New Roman,serif" font-size="14.00">ad5641_dac_driver.c</text>
</g>
<!-- ad5641_mk&#45;&gt;ad5641_dac_driver_c -->
<g id="edge10" class="edge"><title>ad5641_mk&#45;&gt;ad5641_dac_driver_c</title>
<path fill="none" stroke="chartreuse" d="M100.889,-546.258C122.403,-558.154 153.85,-574.383 182.887,-585 195.185,-589.496 208.523,-593.472 221.544,-596.895"/>
<polygon fill="chartreuse" stroke="chartreuse" points="220.862,-600.333 231.417,-599.405 222.587,-593.549 220.862,-600.333"/>
</g>
<!-- dac_math_c -->
<g id="node14" class="node"><title>dac_math_c</title>
<ellipse fill="cornsilk" stroke="black" cx="294.677" cy="-558" rx="53.0913" ry="18"/>
<text text-anchor="middle" x="294.677" y="-554.3" font-family="Times New Roman,serif" font-size="14.00">dac_math.c</text>
</g>
<!-- ad5641_mk&#45;&gt;dac_math_c -->
<g id="edge11" class="edge"><title>ad5641_mk&#45;&gt;dac_math_c</title>
<path fill="none" stroke="chartreuse" d="M121.475,-536.792C154.454,-540.854 198.8,-546.315 234.231,-550.679"/>
<polygon fill="chartreuse" stroke="chartreuse" points="234.09,-554.188 244.443,-551.936 234.945,-547.24 234.09,-554.188"/>
</g>
<!-- dac_commands_c -->
<g id="node15" class="node"><title>dac_commands_c</title>
<ellipse fill="cornsilk" stroke="black" cx="294.677" cy="-504" rx="75.2868" ry="18"/>
<text text-anchor="middle" x="294.677" y="-500.3" font-family="Times New Roman,serif" font-size="14.00">dac_commands.c</text>
</g>
<!-- ad5641_mk&#45;&gt;dac_commands_c -->
<g id="edge12" class="edge"><title>ad5641_mk&#45;&gt;dac_commands_c</title>
<path fill="none" stroke="chartreuse" d="M121.475,-525.208C149.289,-521.782 185.189,-517.361 217.007,-513.442"/>
<polygon fill="chartreuse" stroke="chartreuse" points="217.681,-516.886 227.178,-512.19 216.825,-509.938 217.681,-516.886"/>
</g>
<!-- ad5641_dac_driver_test_c -->
<g id="node16" class="node"><title>ad5641_dac_driver_test_c</title>
<ellipse fill="cornsilk" stroke="black" cx="294.677" cy="-450" rx="105.082" ry="18"/>
<text text-anchor="middle" x="294.677" y="-446.3" font-family="Times New Roman,serif" font-size="14.00">ad5641_dac_driver_test.c</text>
</g>
<!-- ad5641_mk&#45;&gt;ad5641_dac_driver_test_c -->
<g id="edge13" class="edge"><title>ad5641_mk&#45;&gt;ad5641_dac_driver_test_c</title>
<path fill="none" stroke="chartreuse" d="M100.889,-515.742C122.403,-503.846 153.85,-487.617 182.887,-477 193.782,-473.017 205.493,-469.442 217.077,-466.298"/>
<polygon fill="chartreuse" stroke="chartreuse" points="217.971,-469.682 226.756,-463.759 216.195,-462.911 217.971,-469.682"/>
</g>
<!-- uio_mk -->
<g id="node17" class="node"><title>uio_mk</title>
<ellipse fill="none" stroke="black" cx="73.4435" cy="-1341" rx="35.9954" ry="18"/>
<text text-anchor="middle" x="73.4435" y="-1337.3" font-family="Times New Roman,serif" font-size="14.00">uio.mk</text>
</g>
<!-- uio_ll_v4_c -->
<g id="node18" class="node"><title>uio_ll_v4_c</title>
<ellipse fill="cornsilk" stroke="black" cx="294.677" cy="-2016" rx="51.1914" ry="18"/>
<text text-anchor="middle" x="294.677" y="-2012.3" font-family="Times New Roman,serif" font-size="14.00">uio_ll_v4.c</text>
</g>
<!-- uio_mk&#45;&gt;uio_ll_v4_c -->
<g id="edge14" class="edge"><title>uio_mk&#45;&gt;uio_ll_v4_c</title>
<path fill="none" stroke="blueviolet" d="M74.9568,-1359.23C77.8442,-1453.8 95.2405,-1885.69 182.887,-1980 197.068,-1995.26 218.308,-2002.54 238.41,-2006.44"/>
<polygon fill="blueviolet" stroke="blueviolet" points="238.015,-2009.92 248.461,-2008.15 239.19,-2003.02 238.015,-2009.92"/>
</g>
<!-- uio_mk&#45;&gt;uio_ll_v4_c -->
<g id="edge15" class="edge"><title>uio_mk&#45;&gt;uio_ll_v4_c</title>
<path fill="none" stroke="blueviolet" d="M74.8088,-1359.19C77.2141,-1455.42 93.5904,-1901.91 182.887,-1998 197.125,-2013.32 218.481,-2020.6 238.655,-2023.22"/>
<polygon fill="blueviolet" stroke="blueviolet" points="238.454,-2026.72 248.738,-2024.17 239.11,-2019.75 238.454,-2026.72"/>
</g>
<!-- uio_msg_handler_c -->
<g id="node19" class="node"><title>uio_msg_handler_c</title>
<ellipse fill="cornsilk" stroke="black" cx="294.677" cy="-1962" rx="79.8859" ry="18"/>
<text text-anchor="middle" x="294.677" y="-1958.3" font-family="Times New Roman,serif" font-size="14.00">uio_msg_handler.c</text>
</g>
<!-- uio_mk&#45;&gt;uio_msg_handler_c -->
<g id="edge16" class="edge"><title>uio_mk&#45;&gt;uio_msg_handler_c</title>
<path fill="none" stroke="blueviolet" d="M75.1733,-1359.11C79.1739,-1449.23 101.339,-1848.54 182.887,-1935 190.196,-1942.75 199.326,-1948.43 209.19,-1952.58"/>
<polygon fill="blueviolet" stroke="blueviolet" points="208.242,-1955.96 218.836,-1956.1 210.641,-1949.38 208.242,-1955.96"/>
</g>
<!-- uio_config_validator_c -->
<g id="node20" class="node"><title>uio_config_validator_c</title>
<ellipse fill="cornsilk" stroke="black" cx="294.677" cy="-1908" rx="92.8835" ry="18"/>
<text text-anchor="middle" x="294.677" y="-1904.3" font-family="Times New Roman,serif" font-size="14.00">uio_config_validator.c</text>
</g>
<!-- uio_mk&#45;&gt;uio_config_validator_c -->
<g id="edge17" class="edge"><title>uio_mk&#45;&gt;uio_config_validator_c</title>
<path fill="none" stroke="blueviolet" d="M75.5334,-1359.14C81.0141,-1444.27 108.307,-1803.31 182.887,-1881 188.574,-1886.92 195.328,-1891.64 202.653,-1895.38"/>
<polygon fill="blueviolet" stroke="blueviolet" points="201.638,-1898.76 212.199,-1899.61 204.476,-1892.36 201.638,-1898.76"/>
</g>
<!-- uio_commands_c -->
<g id="node21" class="node"><title>uio_commands_c</title>
<ellipse fill="cornsilk" stroke="black" cx="294.677" cy="-1854" rx="73.387" ry="18"/>
<text text-anchor="middle" x="294.677" y="-1850.3" font-family="Times New Roman,serif" font-size="14.00">uio_commands.c</text>
</g>
<!-- uio_mk&#45;&gt;uio_commands_c -->
<g id="edge18" class="edge"><title>uio_mk&#45;&gt;uio_commands_c</title>
<path fill="none" stroke="blueviolet" d="M75.9725,-1359.17C83.0553,-1439.05 115.244,-1758.02 182.887,-1827 191.442,-1835.72 202.312,-1841.81 213.883,-1846.02"/>
<polygon fill="blueviolet" stroke="blueviolet" points="213.142,-1849.46 223.732,-1849.14 215.253,-1842.79 213.142,-1849.46"/>
</g>
<!-- uio_diag_page_c -->
<g id="node22" class="node"><title>uio_diag_page_c</title>
<ellipse fill="cornsilk" stroke="black" cx="294.677" cy="-1800" rx="70.6878" ry="18"/>
<text text-anchor="middle" x="294.677" y="-1796.3" font-family="Times New Roman,serif" font-size="14.00">uio_diag_page.c</text>
</g>
<!-- uio_mk&#45;&gt;uio_diag_page_c -->
<g id="edge19" class="edge"><title>uio_mk&#45;&gt;uio_diag_page_c</title>
<path fill="none" stroke="blueviolet" d="M76.5104,-1359.13C85.3248,-1433.33 122.122,-1712.65 182.887,-1773 192.122,-1782.17 203.92,-1788.41 216.356,-1792.62"/>
<polygon fill="blueviolet" stroke="blueviolet" points="215.376,-1795.98 225.958,-1795.46 217.362,-1789.27 215.376,-1795.98"/>
</g>
<!-- uio_api_c -->
<g id="node23" class="node"><title>uio_api_c</title>
<ellipse fill="cornsilk" stroke="black" cx="294.677" cy="-1746" rx="44.393" ry="18"/>
<text text-anchor="middle" x="294.677" y="-1742.3" font-family="Times New Roman,serif" font-size="14.00">uio_api.c</text>
</g>
<!-- uio_mk&#45;&gt;uio_api_c -->
<g id="edge20" class="edge"><title>uio_mk&#45;&gt;uio_api_c</title>
<path fill="none" stroke="blueviolet" d="M73.7509,-1359.16C72.4878,-1419.81 77.0219,-1617.32 182.887,-1719 198.155,-1733.66 219.999,-1740.79 240.261,-1744.11"/>
<polygon fill="blueviolet" stroke="blueviolet" points="239.974,-1747.61 250.356,-1745.49 240.921,-1740.67 239.974,-1747.61"/>
</g>
<!-- uio_init_c -->
<g id="node24" class="node"><title>uio_init_c</title>
<ellipse fill="cornsilk" stroke="black" cx="294.677" cy="-1692" rx="44.393" ry="18"/>
<text text-anchor="middle" x="294.677" y="-1688.3" font-family="Times New Roman,serif" font-size="14.00">uio_init.c</text>
</g>
<!-- uio_mk&#45;&gt;uio_init_c -->
<g id="edge21" class="edge"><title>uio_mk&#45;&gt;uio_init_c</title>
<path fill="none" stroke="blueviolet" d="M74.7628,-1359.27C76.7602,-1414.33 90.5326,-1580.09 182.887,-1665 198.409,-1679.27 220.192,-1686.34 240.34,-1689.73"/>
<polygon fill="blueviolet" stroke="blueviolet" points="239.981,-1693.22 250.373,-1691.15 240.963,-1686.28 239.981,-1693.22"/>
</g>
<!-- uio_c -->
<g id="node25" class="node"><title>uio_c</title>
<ellipse fill="cornsilk" stroke="black" cx="294.677" cy="-1638" rx="28.6953" ry="18"/>
<text text-anchor="middle" x="294.677" y="-1634.3" font-family="Times New Roman,serif" font-size="14.00">uio.c</text>
</g>
<!-- uio_mk&#45;&gt;uio_c -->
<g id="edge22" class="edge"><title>uio_mk&#45;&gt;uio_c</title>
<path fill="none" stroke="blueviolet" d="M76.1155,-1359.01C81.6247,-1407.61 103.668,-1542.36 182.887,-1611 202.959,-1628.39 232.417,-1634.97 255.913,-1637.29"/>
<polygon fill="blueviolet" stroke="blueviolet" points="255.662,-1640.78 265.902,-1638.06 256.202,-1633.8 255.662,-1640.78"/>
</g>
<!-- uio_pin_codes_c -->
<g id="node26" class="node"><title>uio_pin_codes_c</title>
<ellipse fill="cornsilk" stroke="black" cx="294.677" cy="-1584" rx="71.4873" ry="18"/>
<text text-anchor="middle" x="294.677" y="-1580.3" font-family="Times New Roman,serif" font-size="14.00">uio_pin_codes.c</text>
</g>
<!-- uio_mk&#45;&gt;uio_pin_codes_c -->
<g id="edge23" class="edge"><title>uio_mk&#45;&gt;uio_pin_codes_c</title>
<path fill="none" stroke="blueviolet" d="M78.1009,-1359.04C87.535,-1400.76 116.734,-1504.34 182.887,-1557 193.07,-1565.11 205.33,-1570.83 217.927,-1574.86"/>
<polygon fill="blueviolet" stroke="blueviolet" points="217.021,-1578.24 227.598,-1577.62 218.944,-1571.51 217.021,-1578.24"/>
</g>
<!-- uio_params_c -->
<g id="node27" class="node"><title>uio_params_c</title>
<ellipse fill="cornsilk" stroke="black" cx="294.677" cy="-1530" rx="59.5901" ry="18"/>
<text text-anchor="middle" x="294.677" y="-1526.3" font-family="Times New Roman,serif" font-size="14.00">uio_params.c</text>
</g>
<!-- uio_mk&#45;&gt;uio_params_c -->
<g id="edge24" class="edge"><title>uio_mk&#45;&gt;uio_params_c</title>
<path fill="none" stroke="blueviolet" d="M81.1861,-1358.81C94.8983,-1392.51 129.346,-1465.58 182.887,-1503 195.999,-1512.16 211.871,-1518.23 227.454,-1522.25"/>
<polygon fill="blueviolet" stroke="blueviolet" points="227.089,-1525.75 237.621,-1524.6 228.668,-1518.94 227.089,-1525.75"/>
</g>
<!-- uio_report_c -->
<g id="node28" class="node"><title>uio_report_c</title>
<ellipse fill="cornsilk" stroke="black" cx="294.677" cy="-1476" rx="55.7903" ry="18"/>
<text text-anchor="middle" x="294.677" y="-1472.3" font-family="Times New Roman,serif" font-size="14.00">uio_report.c</text>
</g>
<!-- uio_mk&#45;&gt;uio_report_c -->
<g id="edge25" class="edge"><title>uio_mk&#45;&gt;uio_report_c</title>
<path fill="none" stroke="blueviolet" d="M86.7156,-1358.12C104.914,-1382.2 141.405,-1425.73 182.887,-1449 198.042,-1457.5 215.829,-1463.35 232.662,-1467.36"/>
<polygon fill="blueviolet" stroke="blueviolet" points="231.916,-1470.78 242.435,-1469.51 233.424,-1463.94 231.916,-1470.78"/>
</g>
<!-- uio_task_c -->
<g id="node29" class="node"><title>uio_task_c</title>
<ellipse fill="cornsilk" stroke="black" cx="294.677" cy="-1422" rx="48.1917" ry="18"/>
<text text-anchor="middle" x="294.677" y="-1418.3" font-family="Times New Roman,serif" font-size="14.00">uio_task.c</text>
</g>
<!-- uio_mk&#45;&gt;uio_task_c -->
<g id="edge26" class="edge"><title>uio_mk&#45;&gt;uio_task_c</title>
<path fill="none" stroke="blueviolet" d="M97.4664,-1354.36C118.973,-1366.37 152.27,-1383.81 182.887,-1395 201.642,-1401.86 222.819,-1407.5 241.596,-1411.83"/>
<polygon fill="blueviolet" stroke="blueviolet" points="240.937,-1415.27 251.46,-1414.03 242.463,-1408.43 240.937,-1415.27"/>
</g>
<!-- uio_diag_c -->
<g id="node30" class="node"><title>uio_diag_c</title>
<ellipse fill="cornsilk" stroke="black" cx="294.677" cy="-1368" rx="48.9926" ry="18"/>
<text text-anchor="middle" x="294.677" y="-1364.3" font-family="Times New Roman,serif" font-size="14.00">uio_diag.c</text>
</g>
<!-- uio_mk&#45;&gt;uio_diag_c -->
<g id="edge27" class="edge"><title>uio_mk&#45;&gt;uio_diag_c</title>
<path fill="none" stroke="blueviolet" d="M108.699,-1345.22C143.337,-1349.48 197.434,-1356.15 238.196,-1361.17"/>
<polygon fill="blueviolet" stroke="blueviolet" points="237.899,-1364.66 248.252,-1362.41 238.755,-1357.71 237.899,-1364.66"/>
</g>
<!-- bridge_ll_v4_c -->
<g id="node31" class="node"><title>bridge_ll_v4_c</title>
<ellipse fill="cornsilk" stroke="black" cx="294.677" cy="-1314" rx="63.0888" ry="18"/>
<text text-anchor="middle" x="294.677" y="-1310.3" font-family="Times New Roman,serif" font-size="14.00">bridge_ll_v4.c</text>
</g>
<!-- uio_mk&#45;&gt;bridge_ll_v4_c -->
<g id="edge28" class="edge"><title>uio_mk&#45;&gt;bridge_ll_v4_c</title>
<path fill="none" stroke="blueviolet" d="M104.927,-1332.4C134.908,-1326.89 181.799,-1320.6 221.342,-1316.52"/>
<polygon fill="blueviolet" stroke="blueviolet" points="221.883,-1319.98 231.486,-1315.51 221.187,-1313.02 221.883,-1319.98"/>
</g>
<!-- uio_mk&#45;&gt;bridge_ll_v4_c -->
<g id="edge29" class="edge"><title>uio_mk&#45;&gt;bridge_ll_v4_c</title>
<path fill="none" stroke="blueviolet" d="M109.182,-1341.81C143.241,-1339.46 195.775,-1333.3 236.087,-1327.12"/>
<polygon fill="blueviolet" stroke="blueviolet" points="236.72,-1330.56 246.054,-1325.55 235.631,-1323.64 236.72,-1330.56"/>
</g>
<!-- bridge_msg_handler_c -->
<g id="node32" class="node"><title>bridge_msg_handler_c</title>
<ellipse fill="cornsilk" stroke="black" cx="294.677" cy="-1260" rx="91.784" ry="18"/>
<text text-anchor="middle" x="294.677" y="-1256.3" font-family="Times New Roman,serif" font-size="14.00">bridge_msg_handler.c</text>
</g>
<!-- uio_mk&#45;&gt;bridge_msg_handler_c -->
<g id="edge30" class="edge"><title>uio_mk&#45;&gt;bridge_msg_handler_c</title>
<path fill="none" stroke="blueviolet" d="M97.4664,-1327.64C118.973,-1315.63 152.27,-1298.19 182.887,-1287 194.771,-1282.65 207.627,-1278.8 220.228,-1275.45"/>
<polygon fill="blueviolet" stroke="blueviolet" points="221.439,-1278.76 230.256,-1272.88 219.7,-1271.97 221.439,-1278.76"/>
</g>
<!-- vnq7e100_c -->
<g id="node33" class="node"><title>vnq7e100_c</title>
<ellipse fill="cornsilk" stroke="black" cx="294.677" cy="-1206" rx="52.7911" ry="18"/>
<text text-anchor="middle" x="294.677" y="-1202.3" font-family="Times New Roman,serif" font-size="14.00">vnq7e100.c</text>
</g>
<!-- uio_mk&#45;&gt;vnq7e100_c -->
<g id="edge31" class="edge"><title>uio_mk&#45;&gt;vnq7e100_c</title>
<path fill="none" stroke="blueviolet" d="M86.7156,-1323.88C104.914,-1299.8 141.405,-1256.27 182.887,-1233 198.692,-1224.13 217.359,-1218.16 234.82,-1214.14"/>
<polygon fill="blueviolet" stroke="blueviolet" points="235.877,-1217.49 244.931,-1211.99 234.422,-1210.64 235.877,-1217.49"/>
</g>
<!-- vnhd7008_c -->
<g id="node34" class="node"><title>vnhd7008_c</title>
<ellipse fill="cornsilk" stroke="black" cx="294.677" cy="-1152" rx="53.0913" ry="18"/>
<text text-anchor="middle" x="294.677" y="-1148.3" font-family="Times New Roman,serif" font-size="14.00">vnhd7008.c</text>
</g>
<!-- uio_mk&#45;&gt;vnhd7008_c -->
<g id="edge32" class="edge"><title>uio_mk&#45;&gt;vnhd7008_c</title>
<path fill="none" stroke="blueviolet" d="M81.1861,-1323.19C94.8983,-1289.49 129.346,-1216.42 182.887,-1179 197.469,-1168.81 215.466,-1162.45 232.682,-1158.48"/>
<polygon fill="blueviolet" stroke="blueviolet" points="233.613,-1161.86 242.697,-1156.41 232.196,-1155 233.613,-1161.86"/>
</g>
<!-- bridge_c -->
<g id="node35" class="node"><title>bridge_c</title>
<ellipse fill="cornsilk" stroke="black" cx="294.677" cy="-1098" rx="40.0939" ry="18"/>
<text text-anchor="middle" x="294.677" y="-1094.3" font-family="Times New Roman,serif" font-size="14.00">bridge.c</text>
</g>
<!-- uio_mk&#45;&gt;bridge_c -->
<g id="edge33" class="edge"><title>uio_mk&#45;&gt;bridge_c</title>
<path fill="none" stroke="blueviolet" d="M78.1009,-1322.96C87.535,-1281.24 116.734,-1177.66 182.887,-1125 200.258,-1111.17 223.672,-1104.28 244.5,-1100.9"/>
<polygon fill="blueviolet" stroke="blueviolet" points="245.059,-1104.35 254.479,-1099.5 244.091,-1097.42 245.059,-1104.35"/>
</g>
<!-- bridge_commands_c -->
<g id="node36" class="node"><title>bridge_commands_c</title>
<ellipse fill="cornsilk" stroke="black" cx="294.677" cy="-1044" rx="85.2851" ry="18"/>
<text text-anchor="middle" x="294.677" y="-1040.3" font-family="Times New Roman,serif" font-size="14.00">bridge_commands.c</text>
</g>
<!-- uio_mk&#45;&gt;bridge_commands_c -->
<g id="edge34" class="edge"><title>uio_mk&#45;&gt;bridge_commands_c</title>
<path fill="none" stroke="blueviolet" d="M76.1155,-1322.99C81.6247,-1274.39 103.668,-1139.64 182.887,-1071 190.462,-1064.44 199.373,-1059.41 208.796,-1055.58"/>
<polygon fill="blueviolet" stroke="blueviolet" points="210.143,-1058.81 218.36,-1052.13 207.765,-1052.23 210.143,-1058.81"/>
</g>
<!-- bridge_diag_page_c -->
<g id="node37" class="node"><title>bridge_diag_page_c</title>
<ellipse fill="cornsilk" stroke="black" cx="294.677" cy="-990" rx="82.5854" ry="18"/>
<text text-anchor="middle" x="294.677" y="-986.3" font-family="Times New Roman,serif" font-size="14.00">bridge_diag_page.c</text>
</g>
<!-- uio_mk&#45;&gt;bridge_diag_page_c -->
<g id="edge35" class="edge"><title>uio_mk&#45;&gt;bridge_diag_page_c</title>
<path fill="none" stroke="blueviolet" d="M74.7628,-1322.73C76.7602,-1267.67 90.5326,-1101.91 182.887,-1017 190.563,-1009.94 199.769,-1004.65 209.552,-1000.69"/>
<polygon fill="blueviolet" stroke="blueviolet" points="210.838,-1003.94 219.077,-997.283 208.483,-997.351 210.838,-1003.94"/>
</g>
<!-- ppp_diag_page_c -->
<g id="node38" class="node"><title>ppp_diag_page_c</title>
<ellipse fill="cornsilk" stroke="black" cx="294.677" cy="-936" rx="74.187" ry="18"/>
<text text-anchor="middle" x="294.677" y="-932.3" font-family="Times New Roman,serif" font-size="14.00">ppp_diag_page.c</text>
</g>
<!-- uio_mk&#45;&gt;ppp_diag_page_c -->
<g id="edge36" class="edge"><title>uio_mk&#45;&gt;ppp_diag_page_c</title>
<path fill="none" stroke="blueviolet" d="M73.7509,-1322.84C72.4878,-1262.19 77.0219,-1064.68 182.887,-963 191.644,-954.59 202.563,-948.659 214.106,-944.504"/>
<polygon fill="blueviolet" stroke="blueviolet" points="215.429,-947.757 223.916,-941.415 213.326,-941.08 215.429,-947.757"/>
</g>
<!-- ppb_diag_page_c -->
<g id="node39" class="node"><title>ppb_diag_page_c</title>
<ellipse fill="cornsilk" stroke="black" cx="294.677" cy="-882" rx="74.187" ry="18"/>
<text text-anchor="middle" x="294.677" y="-878.3" font-family="Times New Roman,serif" font-size="14.00">ppb_diag_page.c</text>
</g>
<!-- uio_mk&#45;&gt;ppb_diag_page_c -->
<g id="edge37" class="edge"><title>uio_mk&#45;&gt;ppb_diag_page_c</title>
<path fill="none" stroke="blueviolet" d="M76.5104,-1322.87C85.3248,-1248.67 122.122,-969.347 182.887,-909 191.502,-900.444 202.347,-894.439 213.86,-890.252"/>
<polygon fill="blueviolet" stroke="blueviolet" points="215.179,-893.505 223.654,-887.147 213.064,-886.833 215.179,-893.505"/>
</g>
<!-- poll_pull_pin_voltages_c -->
<g id="node40" class="node"><title>poll_pull_pin_voltages_c</title>
<ellipse fill="cornsilk" stroke="black" cx="294.677" cy="-828" rx="100.182" ry="18"/>
<text text-anchor="middle" x="294.677" y="-824.3" font-family="Times New Roman,serif" font-size="14.00">poll_pull_pin_voltages.c</text>
</g>
<!-- uio_mk&#45;&gt;poll_pull_pin_voltages_c -->
<g id="edge38" class="edge"><title>uio_mk&#45;&gt;poll_pull_pin_voltages_c</title>
<path fill="none" stroke="blueviolet" d="M75.9725,-1322.83C83.0553,-1242.95 115.244,-923.975 182.887,-855 188.033,-849.752 194.017,-845.459 200.486,-841.954"/>
<polygon fill="blueviolet" stroke="blueviolet" points="202.039,-845.091 209.577,-837.646 199.042,-838.765 202.039,-845.091"/>
</g>
<!-- poll_pull_bridge_voltages_c -->
<g id="node41" class="node"><title>poll_pull_bridge_voltages_c</title>
<ellipse fill="cornsilk" stroke="black" cx="294.677" cy="-774" rx="111.581" ry="18"/>
<text text-anchor="middle" x="294.677" y="-770.3" font-family="Times New Roman,serif" font-size="14.00">poll_pull_bridge_voltages.c</text>
</g>
<!-- uio_mk&#45;&gt;poll_pull_bridge_voltages_c -->
<g id="edge39" class="edge"><title>uio_mk&#45;&gt;poll_pull_bridge_voltages_c</title>
<path fill="none" stroke="blueviolet" d="M75.5334,-1322.86C81.0141,-1237.73 108.307,-878.691 182.887,-801 187.059,-796.654 191.804,-792.96 196.928,-789.824"/>
<polygon fill="blueviolet" stroke="blueviolet" points="198.695,-792.848 205.874,-785.056 195.402,-786.671 198.695,-792.848"/>
</g>
<!-- load_detect_c -->
<g id="node42" class="node"><title>load_detect_c</title>
<ellipse fill="cornsilk" stroke="black" cx="294.677" cy="-720" rx="59.5901" ry="18"/>
<text text-anchor="middle" x="294.677" y="-716.3" font-family="Times New Roman,serif" font-size="14.00">load_detect.c</text>
</g>
<!-- uio_mk&#45;&gt;load_detect_c -->
<g id="edge40" class="edge"><title>uio_mk&#45;&gt;load_detect_c</title>
<path fill="none" stroke="blueviolet" d="M75.1733,-1322.89C79.1739,-1232.77 101.339,-833.461 182.887,-747 194.023,-735.193 209.39,-728.179 225.134,-724.099"/>
<polygon fill="blueviolet" stroke="blueviolet" points="225.947,-727.504 234.952,-721.921 224.432,-720.67 225.947,-727.504"/>
</g>
<!-- load_detect_commands_c -->
<g id="node43" class="node"><title>load_detect_commands_c</title>
<ellipse fill="cornsilk" stroke="black" cx="294.677" cy="-666" rx="104.782" ry="18"/>
<text text-anchor="middle" x="294.677" y="-662.3" font-family="Times New Roman,serif" font-size="14.00">load_detect_commands.c</text>
</g>
<!-- uio_mk&#45;&gt;load_detect_commands_c -->
<g id="edge41" class="edge"><title>uio_mk&#45;&gt;load_detect_commands_c</title>
<path fill="none" stroke="blueviolet" d="M74.8747,-1322.86C77.5044,-1227.84 94.3669,-788.252 182.887,-693 187.398,-688.146 192.622,-684.1 198.298,-680.734"/>
<polygon fill="blueviolet" stroke="blueviolet" points="200.251,-683.665 207.549,-675.984 197.054,-677.438 200.251,-683.665"/>
</g>
<!-- C__Job_IO_V4_1_FW_controllers_abarunin_io_040_components_boards_IO_V4_A_board_mk -->
<g id="node44" class="node"><title>C__Job_IO_V4_1_FW_controllers_abarunin_io_040_components_boards_IO_V4_A_board_mk</title>
<ellipse fill="none" stroke="black" cx="73.4435" cy="-2124" rx="46.2923" ry="18"/>
<text text-anchor="middle" x="73.4435" y="-2120.3" font-family="Times New Roman,serif" font-size="14.00">board.mk</text>
</g>
<!-- io_v4_mk -->
<g id="node45" class="node"><title>io_v4_mk</title>
<ellipse fill="lightskyblue" stroke="black" cx="294.677" cy="-2178" rx="44.6926" ry="18"/>
<text text-anchor="middle" x="294.677" y="-2174.3" font-family="Times New Roman,serif" font-size="14.00">io_v4.mk</text>
</g>
<!-- C__Job_IO_V4_1_FW_controllers_abarunin_io_040_components_boards_IO_V4_A_board_mk&#45;&gt;io_v4_mk -->
<g id="edge42" class="edge"><title>C__Job_IO_V4_1_FW_controllers_abarunin_io_040_components_boards_IO_V4_A_board_mk&#45;&gt;io_v4_mk</title>
<path fill="none" stroke="magenta" d="M112.574,-2133.54C133.354,-2138.73 159.527,-2145.25 182.887,-2151 203.594,-2156.1 226.492,-2161.69 246.07,-2166.45"/>
<polygon fill="magenta" stroke="magenta" points="245.432,-2169.9 255.976,-2168.86 247.086,-2163.1 245.432,-2169.9"/>
</g>
<!-- utils_mk -->
<g id="node46" class="node"><title>utils_mk</title>
<ellipse fill="lightskyblue" stroke="black" cx="294.677" cy="-2124" rx="38.9931" ry="18"/>
<text text-anchor="middle" x="294.677" y="-2120.3" font-family="Times New Roman,serif" font-size="14.00">utils.mk</text>
</g>
<!-- C__Job_IO_V4_1_FW_controllers_abarunin_io_040_components_boards_IO_V4_A_board_mk&#45;&gt;utils_mk -->
<g id="edge43" class="edge"><title>C__Job_IO_V4_1_FW_controllers_abarunin_io_040_components_boards_IO_V4_A_board_mk&#45;&gt;utils_mk</title>
<path fill="none" stroke="magenta" d="M119.603,-2124C156.267,-2124 207.852,-2124 245.344,-2124"/>
<polygon fill="magenta" stroke="magenta" points="245.521,-2127.5 255.521,-2124 245.521,-2120.5 245.521,-2127.5"/>
</g>
<!-- rules_mk -->
<g id="node47" class="node"><title>rules_mk</title>
<ellipse fill="lightskyblue" stroke="black" cx="294.677" cy="-2070" rx="41.6928" ry="18"/>
<text text-anchor="middle" x="294.677" y="-2066.3" font-family="Times New Roman,serif" font-size="14.00">rules.mk</text>
</g>
<!-- C__Job_IO_V4_1_FW_controllers_abarunin_io_040_components_boards_IO_V4_A_board_mk&#45;&gt;rules_mk -->
<g id="edge44" class="edge"><title>C__Job_IO_V4_1_FW_controllers_abarunin_io_040_components_boards_IO_V4_A_board_mk&#45;&gt;rules_mk</title>
<path fill="none" stroke="magenta" d="M112.574,-2114.46C133.354,-2109.27 159.527,-2102.75 182.887,-2097 204.265,-2091.73 227.977,-2085.95 247.961,-2081.09"/>
<polygon fill="magenta" stroke="magenta" points="248.851,-2084.47 257.741,-2078.71 247.197,-2077.67 248.851,-2084.47"/>
</g>
</g>
</svg>
